<?xml version="1.0" encoding="utf-8"?>
<!-- Generator: Adobe Illustrator 16.0.4, SVG Export Plug-In . SVG Version: 6.00 Build 0)  -->
<!DOCTYPE svg PUBLIC "-//W3C//DTD SVG 1.1//EN" "http://www.w3.org/Graphics/SVG/1.1/DTD/svg11.dtd">
<svg version="1.1" id="Laag_1" xmlns="http://www.w3.org/2000/svg" xmlns:xlink="http://www.w3.org/1999/xlink" x="0px" y="0px"
	 width="100px" height="100px" viewBox="0 0 100 100" enable-background="new 0 0 100 100" xml:space="preserve">
<path fill="#3A52F0" d="M40.994,25.927c-10.973,0-19.899,8.926-19.899,19.9c0,5.438,2.259,10.692,6.201,14.437l13.698,14.81
	l13.698-14.81c3.943-3.744,6.203-8.998,6.203-14.438C60.896,34.854,51.968,25.927,40.994,25.927z M40.994,53.09
	c-4.48,0-8.125-3.645-8.125-8.126c0-4.479,3.644-8.124,8.125-8.124c4.479,0,8.125,3.644,8.125,8.124
	C49.119,49.445,45.475,53.09,40.994,53.09z"/>
<g>
	<path fill="#3A52F0" d="M69.353,65.179c0-1.284,0.344-2.255,1.032-2.913c0.688-0.657,1.689-0.986,3.005-0.986
		c1.27,0,2.252,0.337,2.947,1.01c0.695,0.672,1.043,1.636,1.043,2.89c0,1.208-0.352,2.16-1.055,2.856
		c-0.703,0.695-1.682,1.043-2.936,1.043c-1.285,0-2.279-0.34-2.982-1.021S69.353,66.418,69.353,65.179z M76.21,55.332h-5.596
		l-1.17-22.409h7.936L76.21,55.332z"/>
</g>
</svg>
