<?xml version="1.0" encoding="utf-8"?>
<!-- Generator: Adobe Illustrator 16.0.4, SVG Export Plug-In . SVG Version: 6.00 Build 0)  -->
<!DOCTYPE svg PUBLIC "-//W3C//DTD SVG 1.1//EN" "http://www.w3.org/Graphics/SVG/1.1/DTD/svg11.dtd">
<svg version="1.1" id="Laag_1" xmlns="http://www.w3.org/2000/svg" xmlns:xlink="http://www.w3.org/1999/xlink" x="0px" y="0px"
	 width="100px" height="100px" viewBox="0 0 100 100" enable-background="new 0 0 100 100" xml:space="preserve">
<circle fill="#FFFFFF" cx="53.258" cy="51.026" r="5.302"/>
<path fill="#FFFFFF" d="M71.573,36.5h-4.119c-0.008,0-0.016-0.036-0.022-0.044l-3.308-3.221c-1.007-1.013-2.998-1.735-4.426-1.735
	H46.09c-1.428,0-3.42,0.712-4.426,1.725l-3.307,3.289c-0.008,0.008-0.015-0.014-0.023-0.014H34.5v-0.56
	c0-1.434-0.563-2.44-1.997-2.44h-0.779c-1.434,0-3.224,1.007-3.224,2.44v0.56h-0.93c-1.075,0-2.07,0.832-2.07,1.907v24.792
	c0,1.075,0.995,2.301,2.07,2.301h44.003c1.075,0,1.927-1.226,1.927-2.301V38.407C73.5,37.332,72.648,36.5,71.573,36.5z
	 M46.996,35.978l0.139-0.052c0.828-0.833,2.467-1.426,3.643-1.426h4.231c1.176,0,2.814,0.593,3.644,1.427l0.14,0.101
	c0.828,0.834,0.544,1.473-0.631,1.473H47.626C46.451,37.5,46.167,36.811,46.996,35.978z M53.258,59.71
	c-4.796,0-8.684-3.889-8.684-8.684c0-4.796,3.888-8.684,8.684-8.684c4.795,0,8.683,3.888,8.683,8.684
	C61.94,55.821,58.053,59.71,53.258,59.71z"/>
</svg>
