<svg xmlns="http://www.w3.org/2000/svg" width="50" height="50" viewBox="0 0 50 50"><path d="M31.543 37.725l-1.998-5.668h-9.3l-1.997 5.668h-5.45l9.737-25.428h4.94l9.66 25.428h-5.592zm-5.376-15.112c-.51-1.49-1.017-3.015-1.272-3.96-.254.945-.762 2.47-1.27 3.96l-1.636 4.614h5.81l-1.633-4.614zM11.746 25.714c-.12.356-.505.548-.862.43l-7.09-2.38c-.357-.12-.55-.506-.43-.863l.59-1.756c.12-.356.506-.548.862-.428l7.09 2.38c.358.12.55.505.43.862l-.59 1.756zM11.36 31.28c.12.356-.074.743-.43.862l-5.052 1.793c-.357.12-.743-.072-.862-.43l-.588-1.757c-.12-.356.073-.743.43-.862l5.05-1.793c.357-.12.743.073.863.43l.59 1.758zM9.97 15.066c-.298.23-.353.658-.123.956l3.2 4.3c.23.296.658.35.956.12l1.466-1.132c.296-.23.352-.658.12-.956l-3.2-4.3c-.23-.297-.657-.352-.955-.122L9.97 15.066zM38.14 25.714c.12.356.505.548.86.43l7.093-2.38c.356-.12.548-.506.43-.863l-.59-1.756c-.12-.356-.507-.548-.862-.428l-7.09 2.38c-.356.12-.55.505-.43.862l.59 1.756zM38.525 31.28c-.12.356.074.743.43.862l5.052 1.793c.356.12.743-.072.862-.43l.587-1.757c.12-.356-.073-.743-.43-.862l-5.05-1.793c-.358-.12-.745.073-.864.43l-.588 1.758zM39.916 15.066c.297.23.354.658.122.956l-3.2 4.3c-.23.296-.658.35-.956.12l-1.466-1.132c-.298-.23-.354-.658-.122-.956l3.2-4.3c.23-.297.658-.352.956-.122l1.466 1.134z"/></svg>