<?xml version="1.0" encoding="utf-8"?>
<!-- Generator: Adobe Illustrator 16.0.4, SVG Export Plug-In . SVG Version: 6.00 Build 0)  -->
<!DOCTYPE svg PUBLIC "-//W3C//DTD SVG 1.1//EN" "http://www.w3.org/Graphics/SVG/1.1/DTD/svg11.dtd">
<svg version="1.1" xmlns="http://www.w3.org/2000/svg" xmlns:xlink="http://www.w3.org/1999/xlink" x="0px" y="0px" width="100px"
	 height="100px" viewBox="0 284 100 100" enable-background="new 0 284 100 100" xml:space="preserve">
<g id="Laag_1" display="none">
	<rect x="-62.186" y="-43.806" display="inline" fill="#3A52F0" width="620.686" height="457.306"/>
</g>
<g id="Laag_2">
	<g>
		<path fill="#FFFFFF" d="M73.77,364.714H30.142v-54.48H73.77V364.714z M32.148,362.708h39.616v-50.467H32.148V362.708z"/>
	</g>
	<g>
		<path fill="#FFFFFF" d="M51.698,355.993c-6.467,0-11.731-5.264-11.731-11.732s5.264-11.734,11.731-11.734
			c6.47,0,11.733,5.266,11.733,11.734S58.168,355.993,51.698,355.993z M51.698,336.54c-4.255,0-7.719,3.463-7.719,7.721
			c0,4.256,3.464,7.721,7.719,7.721c4.258,0,7.721-3.465,7.721-7.721C59.419,340.003,55.956,336.54,51.698,336.54z"/>
	</g>
	<g>
		<path fill="#FFFFFF" d="M51.955,325.337c-11.058,0-20.906-1.918-21.004-1.938l0.388-1.967c0.096,0.018,9.762,1.898,20.616,1.898
			c14.917,0,20.428-1.844,20.482-1.861l0.662,1.893C72.87,323.442,67.305,325.337,51.955,325.337z"/>
	</g>
	<g>
		<rect x="64.3" y="315.136" fill="#FFFFFF" width="3.242" height="3.242"/>
	</g>
	<g>
		<rect x="59.01" y="315.136" fill="#FFFFFF" width="3.242" height="3.242"/>
	</g>
</g>
</svg>
