<?xml version="1.0" encoding="utf-8"?>
<!-- Generator: Adobe Illustrator 16.0.4, SVG Export Plug-In . SVG Version: 6.00 Build 0)  -->
<!DOCTYPE svg PUBLIC "-//W3C//DTD SVG 1.1//EN" "http://www.w3.org/Graphics/SVG/1.1/DTD/svg11.dtd">
<svg version="1.1" id="Laag_1" xmlns="http://www.w3.org/2000/svg" xmlns:xlink="http://www.w3.org/1999/xlink" x="0px" y="0px"
	 width="100px" height="100px" viewBox="0 0 100 100" enable-background="new 0 0 100 100" xml:space="preserve">
<path fill="#FFFFFF" d="M50,25.927c-10.973,0-19.899,8.926-19.899,19.9c0,5.438,2.259,10.692,6.201,14.437L50,75.073l13.697-14.81
	c3.943-3.744,6.203-8.998,6.203-14.437C69.9,34.854,60.973,25.927,50,25.927z M50,53.09c-4.48,0-8.125-3.645-8.125-8.126
	c0-4.479,3.644-8.124,8.125-8.124c4.479,0,8.125,3.644,8.125,8.124C58.125,49.445,54.481,53.09,50,53.09z"/>
</svg>
