<?xml version="1.0" encoding="utf-8"?>
<!-- Generator: Adobe Illustrator 16.0.4, SVG Export Plug-In . SVG Version: 6.00 Build 0)  -->
<!DOCTYPE svg PUBLIC "-//W3C//DTD SVG 1.1//EN" "http://www.w3.org/Graphics/SVG/1.1/DTD/svg11.dtd">
<svg version="1.1" xmlns="http://www.w3.org/2000/svg" xmlns:xlink="http://www.w3.org/1999/xlink" x="0px" y="0px" width="100px"
	 height="100px" viewBox="0 284 100 100" enable-background="new 0 284 100 100" xml:space="preserve">
<g id="Laag_1" display="none">
	<rect x="-62.186" y="-43.806" display="inline" fill="#3A52F0" width="620.686" height="457.306"/>
</g>
<g id="Laag_2">
	<g>
		<path fill="#FFFFFF" d="M69.132,361.357h-36.5v-45.581h36.5V361.357z M34.311,359.679h33.143v-42.222H34.311V359.679z"/>
	</g>
	<g>
		<path fill="#FFFFFF" d="M50.666,354.061c-5.41,0-9.814-4.403-9.814-9.814c0-5.412,4.405-9.818,9.814-9.818
			c5.413,0,9.816,4.406,9.816,9.818C60.482,349.657,56.079,354.061,50.666,354.061z M50.666,337.786
			c-3.559,0-6.458,2.897-6.458,6.46c0,3.56,2.898,6.459,6.458,6.459c3.562,0,6.46-2.899,6.46-6.459
			C57.126,340.684,54.229,337.786,50.666,337.786z"/>
	</g>
	<g>
		<path fill="#FFFFFF" d="M50.881,328.413c-9.25,0-17.49-1.605-17.572-1.62l0.325-1.646c0.08,0.015,8.167,1.589,17.247,1.589
			c12.48,0,17.09-1.543,17.136-1.558l0.555,1.584C68.379,326.828,63.723,328.413,50.881,328.413z"/>
	</g>
	<g>
		<rect x="61.209" y="319.879" fill="#FFFFFF" width="2.713" height="2.712"/>
	</g>
	<g>
		<rect x="56.783" y="319.879" fill="#FFFFFF" width="2.713" height="2.712"/>
	</g>
</g>
</svg>
