<?xml version="1.0" encoding="utf-8"?>
<!-- Generator: Adobe Illustrator 16.0.4, SVG Export Plug-In . SVG Version: 6.00 Build 0)  -->
<!DOCTYPE svg PUBLIC "-//W3C//DTD SVG 1.1//EN" "http://www.w3.org/Graphics/SVG/1.1/DTD/svg11.dtd">
<svg version="1.1" id="Laag_1" xmlns="http://www.w3.org/2000/svg" xmlns:xlink="http://www.w3.org/1999/xlink" x="0px" y="0px"
	 width="100px" height="100px" viewBox="0 0 100 100" enable-background="new 0 0 100 100" xml:space="preserve">
<g>
	<path fill="#FFFFFF" d="M47.446,67.5c-7.15,0-11.578-12.457-13.583-19.644c-0.565-2.025,0.619-4.336,2.644-4.901
		c2.027-0.569,4.125,0.512,4.691,2.535c1.597,5.7,4.267,11.458,6.005,13.206c2.722-2.965,7.979-14.038,11.631-23.592
		c0.75-1.965,2.946-2.962,4.917-2.211c1.966,0.749,2.948,3.369,2.197,5.332C54.944,67.024,49.534,67.5,47.496,67.5
		C47.479,67.5,47.462,67.5,47.446,67.5z"/>
</g>
</svg>
