<?xml version="1.0" encoding="utf-8"?>
<!-- Generator: Adobe Illustrator 16.0.4, SVG Export Plug-In . SVG Version: 6.00 Build 0)  -->
<!DOCTYPE svg PUBLIC "-//W3C//DTD SVG 1.1//EN" "http://www.w3.org/Graphics/SVG/1.1/DTD/svg11.dtd">
<svg version="1.1" id="Laag_1" xmlns="http://www.w3.org/2000/svg" xmlns:xlink="http://www.w3.org/1999/xlink" x="0px" y="0px"
	 width="100px" height="100px" viewBox="0 0 100 100" enable-background="new 0 0 100 100" xml:space="preserve">
<g>
	<g>
		<path fill="#3E57A3" d="M50,79.6L33.778,62.062c-4.669-4.434-7.344-10.655-7.344-17.096C26.434,31.971,37.005,21.4,50,21.4
			c12.995,0,23.567,10.572,23.567,23.566c0,6.44-2.676,12.663-7.346,17.096L50,79.6z M50,24.4c-11.34,0-20.565,9.226-20.565,20.566
			c0,5.747,2.31,11.078,6.504,15.009l0.19,0.219L50,74.463l14.062-14.486c4.193-3.933,6.504-9.264,6.504-15.01
			C70.566,33.626,61.34,24.4,50,24.4z"/>
	</g>
	<g>
		<path fill="#3E57A3" d="M50,57.614c-6.973,0-12.645-5.674-12.645-12.648c0-6.972,5.672-12.644,12.645-12.644
			c6.972,0,12.644,5.672,12.644,12.644C62.645,51.939,56.973,57.614,50,57.614z M50,34.323c-5.87,0-10.645,4.775-10.645,10.644
			c0,5.872,4.774,10.647,10.645,10.647c5.871,0,10.644-4.775,10.644-10.647C60.645,39.097,55.869,34.323,50,34.323z"/>
	</g>
</g>
</svg>
