<?xml version="1.0" encoding="utf-8"?>
<!-- Generator: Adobe Illustrator 16.0.4, SVG Export Plug-In . SVG Version: 6.00 Build 0)  -->
<!DOCTYPE svg PUBLIC "-//W3C//DTD SVG 1.1//EN" "http://www.w3.org/Graphics/SVG/1.1/DTD/svg11.dtd">
<svg version="1.1" xmlns="http://www.w3.org/2000/svg" xmlns:xlink="http://www.w3.org/1999/xlink" x="0px" y="0px" width="100px"
	 height="100px" viewBox="0 0 100 100" enable-background="new 0 0 100 100" xml:space="preserve">
<g id="Laag_1" display="none">
	<rect x="-62.186" y="-43.806" display="inline" fill="#3A52F0" width="620.686" height="457.306"/>
</g>
<g id="Laag_2">
	<g>
		<g>
			<path fill="#FFFFFF" d="M35.817,64.979c-2.164,0-4.915-0.135-7.008-1.187c-2.275-1.146-3.43-3.186-3.43-6.062l0,0
				c-0.006,0-0.171-1.881,1.225-3.568c1.29-1.557,3.425-2.414,6.358-2.556c-0.005-0.221-0.014-0.446-0.021-0.677
				c-0.094-2.857-0.209-6.415,1.74-8.598c1.09-1.218,2.695-1.837,4.769-1.837h5.229c0.448-0.057,4.242-0.665,4.242-4.528v-0.946
				h0.877c2.154,0,3.715,0.699,4.641,2.075c0.979,1.454,0.957,3.295,0.798,4.493h2.521c1.448,0.159,4.015,1.498,4.015,5.463
				l-0.088,0.852h5.215c0.016-0.003,0.156-0.014,0.362-0.014c3.079,0,6.369,1.907,6.369,7.264c0,7.142-2.344,9.674-8.955,9.674
				c-5.792,0-8.086-0.006-8.086-0.006H42.138c-0.933,0-1.932,0.037-2.958,0.076C38.074,64.938,36.936,64.979,35.817,64.979z
				 M33.853,53.479c-2.833,0-4.888,0.672-5.942,1.945c-0.876,1.058-0.788,2.19-0.786,2.201c0.005,2.239,0.773,3.62,2.423,4.451
				c1.781,0.895,4.286,1.01,6.269,1.01c1.101,0,2.216-0.04,3.303-0.081c1.047-0.039,2.067-0.076,3.018-0.076H56.59
				c0.004,0,2.296,0.005,8.085,0.005c5.588,0,7.203-1.745,7.203-7.78c0-4.849-3.229-5.371-4.617-5.371
				c-0.151,0-0.245,0.008-0.262,0.009l-7.277,0.004l0.304-2.852c-0.006-3.06-2.126-3.436-2.367-3.467l-4.705,0.006l0.366-1.237
				c0.007-0.025,0.727-2.52-0.303-4.042c-0.471-0.699-1.279-1.116-2.407-1.246c-0.504,3.842-3.926,5.233-5.799,5.426l-0.079-0.893
				l0.003,0.896H39.45c-1.603,0-2.75,0.412-3.508,1.261c-1.434,1.603-1.331,4.714-1.25,7.214c0.019,0.588,0.038,1.151,0.038,1.669
				v0.947H33.853z"/>
		</g>
		<g>
			<rect x="47.483" y="47.977" fill="#FFFFFF" width="14.287" height="1.893"/>
		</g>
		<g>
			<rect x="33.559" y="51.586" fill="#FFFFFF" width="6.108" height="1.893"/>
		</g>
	</g>
</g>
</svg>
