<?xml version="1.0" encoding="utf-8"?>
<!-- Generator: Adobe Illustrator 16.0.4, SVG Export Plug-In . SVG Version: 6.00 Build 0)  -->
<!DOCTYPE svg PUBLIC "-//W3C//DTD SVG 1.1//EN" "http://www.w3.org/Graphics/SVG/1.1/DTD/svg11.dtd">
<svg version="1.1" xmlns="http://www.w3.org/2000/svg" xmlns:xlink="http://www.w3.org/1999/xlink" x="0px" y="0px" width="100px"
	 height="100px" viewBox="0 0 100 100" enable-background="new 0 0 100 100" xml:space="preserve">
<g id="Laag_1" display="none">
	<rect x="-62.186" y="-43.806" display="inline" fill="#3A52F0" width="620.686" height="457.306"/>
</g>
<g id="Laag_2">
	<g>
		<path fill="#FFFFFF" d="M35.349,68.618c-2.337,0-5.309-0.135-7.569-1.187c-2.458-1.146-3.705-3.186-3.705-6.062l0,0
			c-0.006,0-0.186-1.881,1.323-3.568c1.394-1.557,3.7-2.414,6.867-2.556c-0.006-0.221-0.015-0.446-0.022-0.677
			c-0.102-2.857-0.226-6.414,1.879-8.596c1.177-1.218,2.911-1.837,5.15-1.837h6.729c0.484-0.057,4.58-0.665,4.58-4.528v-0.946h0.947
			c2.327,0,4.014,0.699,5.014,2.075c1.057,1.454,1.034,3.295,0.862,4.493h2.722c1.564,0.159,4.336,1.497,4.336,5.461l-0.095,0.852
			H70c0.017-0.003,0.169-0.014,0.392-0.014c3.325,0,6.879,1.907,6.879,7.264c0,7.142-2.531,9.674-9.673,9.674
			c-6.255,0-8.733-0.006-8.733-0.006H42.176c-1.007,0-2.086,0.037-3.195,0.076C37.787,68.577,36.558,68.618,35.349,68.618z
			 M33.228,57.118c-3.06,0-5.279,0.672-6.417,1.945c-0.947,1.058-0.851,2.19-0.849,2.201c0.006,2.239,0.835,3.62,2.617,4.451
			c1.924,0.895,4.629,1.01,6.771,1.01c1.188,0,2.393-0.04,3.567-0.081c1.131-0.039,2.232-0.076,3.26-0.076h16.69
			c0.004,0,2.479,0.005,8.731,0.005c6.036,0,7.78-1.745,7.78-7.78c0-4.849-3.487-5.371-4.986-5.371
			c-0.164,0-0.265,0.008-0.283,0.009l-7.86,0.004l0.328-2.852c-0.006-3.059-2.296-3.435-2.557-3.466l-5.082,0.005l0.396-1.236
			c0.008-0.026,0.785-2.519-0.327-4.042c-0.508-0.699-1.382-1.116-2.6-1.246c-0.545,3.842-4.24,5.232-6.263,5.426l-0.085-0.893
			l0.003,0.896h-6.789c-1.731,0-2.97,0.412-3.789,1.26c-1.548,1.602-1.438,4.713-1.351,7.213c0.02,0.588,0.041,1.151,0.041,1.669
			v0.947H33.228z"/>
	</g>
	<g>
		<rect x="49.03" y="51.616" fill="#FFFFFF" width="15.431" height="1.893"/>
	</g>
	<g>
		<rect x="32.91" y="55.226" fill="#FFFFFF" width="6.598" height="1.893"/>
	</g>
</g>
</svg>
