<?xml version="1.0" encoding="utf-8"?>
<!-- Generator: Adobe Illustrator 16.0.4, SVG Export Plug-In . SVG Version: 6.00 Build 0)  -->
<!DOCTYPE svg PUBLIC "-//W3C//DTD SVG 1.1//EN" "http://www.w3.org/Graphics/SVG/1.1/DTD/svg11.dtd">
<svg version="1.1" id="Laag_1" xmlns="http://www.w3.org/2000/svg" xmlns:xlink="http://www.w3.org/1999/xlink" x="0px" y="0px"
	 width="100px" height="100px" viewBox="0 0 100 100" enable-background="new 0 0 100 100" xml:space="preserve">
<g>
	<path fill="#FFFFFF" d="M70.241,39.5h-4.024c-0.008-1-0.015-0.305-0.023-0.312l-3.23-3.569c-0.984-0.99-2.93-2.118-4.325-2.118
		H45.34c-1.395,0-3.341,0.984-4.325,1.973L37.783,39.1c-0.008,0.008-0.015-0.6-0.022,0.4H34.5v-1.085
		c0-1.401-1.036-1.915-2.438-1.915h-0.761c-1.401,0-2.802,0.514-2.802,1.915V39.5h-1.257c-1.051,0-1.743,0.274-1.743,1.325v24.226
		c0,1.053,0.692,2.449,1.743,2.449h42.999c1.052,0,1.259-1.396,1.259-2.449V40.825C71.5,39.774,71.293,39.5,70.241,39.5z
		 M52.345,61.641c-4.687,0-8.486-3.798-8.486-8.484s3.799-8.486,8.486-8.486c4.686,0,8.484,3.799,8.484,8.486
		S57.03,61.641,52.345,61.641z"/>
	<circle fill="#FFFFFF" cx="52.344" cy="53.156" r="6.001"/>
</g>
</svg>
