<?xml version="1.0" encoding="utf-8"?>
<!-- Generator: Adobe Illustrator 16.0.4, SVG Export Plug-In . SVG Version: 6.00 Build 0)  -->
<!DOCTYPE svg PUBLIC "-//W3C//DTD SVG 1.1//EN" "http://www.w3.org/Graphics/SVG/1.1/DTD/svg11.dtd">
<svg version="1.1" id="Laag_1" xmlns="http://www.w3.org/2000/svg" xmlns:xlink="http://www.w3.org/1999/xlink" x="0px" y="0px"
	 width="100px" height="100px" viewBox="0 0 100 100" enable-background="new 0 0 100 100" xml:space="preserve">
<g>
	<path fill="#FFFFFF" d="M46.601,73.5c-9.554,0-15.469-16.727-18.149-26.328c-0.755-2.706,0.827-5.834,3.532-6.589
		c2.708-0.761,5.512,0.664,6.268,3.366c2.134,7.616,5.701,15.3,8.023,17.635c3.637-3.962,10.662-18.761,15.541-31.527
		c1.002-2.625,3.936-3.96,6.569-2.957c2.626,1.001,3.939,4.581,2.936,7.204C56.619,72.783,49.391,73.5,46.668,73.5
		C46.646,73.5,46.623,73.5,46.601,73.5z"/>
</g>
</svg>
