<?xml version="1.0" encoding="utf-8"?>
<!-- Generator: Adobe Illustrator 16.0.4, SVG Export Plug-In . SVG Version: 6.00 Build 0)  -->
<!DOCTYPE svg PUBLIC "-//W3C//DTD SVG 1.1//EN" "http://www.w3.org/Graphics/SVG/1.1/DTD/svg11.dtd">
<svg version="1.1" xmlns="http://www.w3.org/2000/svg" xmlns:xlink="http://www.w3.org/1999/xlink" x="0px" y="0px" width="100px"
	 height="100px" viewBox="0 140 100 100" enable-background="new 0 140 100 100" xml:space="preserve">
<g id="Laag_1" display="none">
	<rect x="-62.186" y="-43.806" display="inline" fill="#3A52F0" width="620.686" height="457.306"/>
</g>
<g id="Laag_2">
	<g>
		<path fill="#FFFFFF" d="M60.63,222.696H42.396c-4.835,0-8.919-2.57-11.208-7.051c-3.019-5.904-2.098-13.688,2.343-19.83
			c1.328-1.836,2.688-4.922,4.128-8.191c2.063-4.68,4.39-9.965,7.399-13.41c-0.403-2.402-3.143-4.467-4.812-5.727
			c-1.205-0.906-1.753-1.322-1.753-2.039c0-0.135-0.012-0.301-0.025-0.486c-0.067-0.988-0.17-2.482,0.75-3.469
			c0.504-0.539,1.205-0.812,2.085-0.812l12.84-1.959c1.066-0.035,1.73,0.262,2.235,0.801c0.919,0.986,0.817,2.479,0.751,3.467
			c-0.014,0.188-0.026,0.355-0.026,0.49c0,0.945-1.939,6.875-4.321,10.043c3.232,3.799,6.982,10.469,9.764,15.418
			c1.438,2.559,2.925,5.205,3.397,5.678c7.637,7.637,5.507,15.596,4.235,18.664C68.192,219.079,64.086,222.696,60.63,222.696z
			 M40.49,166.13c0.21,0.188,0.621,0.498,0.964,0.756c2.04,1.537,5.451,4.107,5.652,7.609l0.025,0.424l-0.29,0.312
			c-2.933,3.182-5.278,8.504-7.347,13.203c-1.483,3.367-2.886,6.549-4.337,8.557c-4.004,5.537-4.86,12.502-2.185,17.744
			c1.936,3.785,5.37,5.955,9.423,5.955H60.63c2.322,0,5.835-2.684,7.695-7.176c1.117-2.695,2.98-9.695-3.801-16.479
			c-0.637-0.639-1.716-2.535-3.728-6.111c-2.901-5.162-6.874-12.23-10.071-15.699l-0.623-0.676l0.621-0.68
			c2.205-2.42,4.292-8.594,4.376-9.43c-0.002-0.135,0.012-0.348,0.027-0.588c0.041-0.604,0.112-1.611-0.213-1.961
			c-0.11-0.117-0.317-0.176-0.619-0.176l-12.841,1.959c-0.45,0.012-0.66,0.07-0.77,0.188c-0.325,0.35-0.255,1.357-0.214,1.961
			C40.479,165.931,40.484,166.034,40.49,166.13z"/>
	</g>
	<g>
		<path fill="#FFFFFF" d="M54.224,175.368l-13.21-0.057c-0.168-0.041-4.157-1.012-6.189-1.691l1.273-3.805
			c1.608,0.535,4.755,1.324,5.632,1.541h12.493V175.368z"/>
	</g>
	<g>
		<path fill="#FFFFFF" d="M33.097,180.794l-0.133-4.01c1.683-0.057,3.846-1.473,5.754-2.723c2.128-1.391,4.136-2.705,6.128-2.705
			h2.999v4.012h-2.999c-0.797,0-2.535,1.137-3.93,2.051C38.566,178.958,35.904,180.7,33.097,180.794z"/>
	</g>
</g>
</svg>
