<?xml version="1.0" encoding="utf-8"?>
<!-- Generator: Adobe Illustrator 16.0.4, SVG Export Plug-In . SVG Version: 6.00 Build 0)  -->
<!DOCTYPE svg PUBLIC "-//W3C//DTD SVG 1.1//EN" "http://www.w3.org/Graphics/SVG/1.1/DTD/svg11.dtd">
<svg version="1.1" xmlns="http://www.w3.org/2000/svg" xmlns:xlink="http://www.w3.org/1999/xlink" x="0px" y="0px" width="100px"
	 height="100px" viewBox="0 0 100 100" enable-background="new 0 0 100 100" xml:space="preserve">
<g id="Laag_1">
	<rect x="-62.186" y="-43.806" fill="#3A52F0" width="620.686" height="457.306"/>
</g>
<g id="Laag_2">
	<path fill="#3A52F0" stroke="#000000" stroke-miterlimit="10" d="M74.941,143.952c-0.127-2.191-3.356-2.741-3.356-3.114
		c0-0.532-0.306-1.913,0.917-1.913l6.601-1.001c1.223,0,0.917,1.381,0.917,1.913c0,0.373-1.097,2.732-2.354,4.113
		c2.629,2.854,6.476,8.634,6.476,8.634c3.121,1.585,3.207,4.464,3.207,5.752s2.411,2.633,2.411,5.339l0,0
		c-0.52,4.117-3.58,6.228-5.437,6.228H71.055c0,0-3.351-0.522-4.589-2.655c-0.03-0.052-0.058-0.104-0.085-0.154
		c-2.246-4.119-0.711-5.413,1.076-9.327c1.809-3.962,4.605-3.853,4.605-3.853"/>
	<path fill="none" stroke="#000000" stroke-width="2" stroke-miterlimit="10" d="M69.534,142.513
		c1.003,0.335,3.062,0.836,3.062,0.836h6.471"/>
	<path fill="none" stroke="#000000" stroke-width="2" stroke-miterlimit="10" d="M68.3,146.105c2.13-0.071,4.477-2.757,6.001-2.757
		s1.524,0,1.524,0"/>
	<g opacity="0.5">
		<path d="M254.5,264.197c-0.569,0-1.119,0.08-1.645,0.218l-3.385-8.719h4.262c0.412,0,0.748-0.336,0.748-0.75
			s-0.336-0.75-0.748-0.75h-5.251c-0.017,0-0.233,0-0.377,0.051c-0.392,0.138-0.579,0.584-0.428,0.971l0.984,2.541h-9.446
			l-0.363-1.149h1.498c0.412,0,0.748-0.335,0.748-0.75s-0.336-0.749-0.748-0.749h-5.045c-0.414,0-0.75,0.334-0.75,0.749
			s0.336,0.75,0.75,0.75h1.975l0.68,2.146l-3.496,5.994c-0.803-0.352-1.686-0.552-2.617-0.552c-3.602,0-6.529,2.93-6.529,6.528
			c0,3.603,2.928,6.531,6.529,6.531c3.346,0,6.109-2.531,6.482-5.778h1.299c0.319,1,1.258,1.732,2.367,1.732
			c1.368,0,2.48-1.115,2.48-2.485c0-0.646-0.25-1.231-0.656-1.676l5.548-9.479l2.089,5.384c-2.069,1.097-3.485,3.271-3.485,5.771
			c0,3.603,2.93,6.531,6.53,6.531s6.529-2.929,6.529-6.531C261.029,267.127,258.101,264.197,254.5,264.197L254.5,264.197z
			 M238.571,260.684l2.46,7.757c-0.666,0.28-1.184,0.843-1.404,1.537h-1.299c-0.209-1.825-1.176-3.419-2.571-4.467L238.571,260.684z
			 M236.812,269.978h-3.662l1.846-3.166C235.955,267.585,236.622,268.703,236.812,269.978L236.812,269.978z M231.846,275.757
			c-2.775,0-5.029-2.255-5.029-5.031c0-2.771,2.254-5.029,5.029-5.029c0.656,0,1.281,0.132,1.855,0.358l-2.504,4.296
			c-0.135,0.229-0.135,0.518-0.002,0.75s0.381,0.378,0.65,0.378h4.967C236.449,273.896,234.363,275.757,231.846,275.757
			L231.846,275.757z M241.994,271.71c-0.543,0-0.983-0.441-0.983-0.984c0-0.539,0.44-0.979,0.981-0.981l0,0c0.002,0,0.002,0,0.002,0
			c0.541,0.003,0.981,0.442,0.981,0.981C242.976,271.269,242.535,271.71,241.994,271.71L241.994,271.71z M242.547,268.255
			l-2.854-8.996h8.118L242.547,268.255z M254.5,275.757c-2.773,0-5.03-2.255-5.03-5.031c0-1.862,1.021-3.491,2.533-4.358
			l1.799,4.632c0.115,0.297,0.397,0.479,0.698,0.479c0.091,0,0.182-0.018,0.271-0.053c0.386-0.149,0.577-0.585,0.428-0.97
			l-1.799-4.635c0.354-0.078,0.723-0.125,1.1-0.125c2.774,0,5.029,2.258,5.029,5.029C259.529,273.502,257.274,275.757,254.5,275.757
			L254.5,275.757z M254.5,275.757"/>
	</g>
	<circle opacity="0.1" cx="243.311" cy="265.727" r="30.42"/>
	<circle opacity="0.1" cx="243.311" cy="184.333" r="30.42"/>
	<g>
		<path fill="#FFFFFF" d="M254.5,101.41c-0.569,0-1.119,0.08-1.645,0.218l-3.385-8.719h4.262c0.412,0,0.748-0.336,0.748-0.75
			s-0.336-0.75-0.748-0.75h-5.251c-0.017,0-0.233,0-0.377,0.051c-0.392,0.138-0.579,0.584-0.428,0.971l0.984,2.541h-9.446
			l-0.363-1.149h1.498c0.412,0,0.748-0.335,0.748-0.75s-0.336-0.749-0.748-0.749h-5.045c-0.414,0-0.75,0.334-0.75,0.749
			s0.336,0.75,0.75,0.75h1.975l0.68,2.146l-3.496,5.994c-0.803-0.352-1.686-0.552-2.617-0.552c-3.602,0-6.529,2.93-6.529,6.528
			c0,3.603,2.928,6.531,6.529,6.531c3.346,0,6.109-2.531,6.482-5.778h1.299c0.319,1,1.258,1.732,2.367,1.732
			c1.368,0,2.48-1.115,2.48-2.485c0-0.646-0.25-1.231-0.656-1.676l5.548-9.479l2.089,5.384c-2.069,1.097-3.485,3.271-3.485,5.771
			c0,3.603,2.93,6.531,6.53,6.531s6.529-2.929,6.529-6.531C261.029,104.34,258.101,101.41,254.5,101.41L254.5,101.41z
			 M238.571,97.896l2.46,7.757c-0.666,0.28-1.184,0.843-1.404,1.537h-1.299c-0.209-1.825-1.176-3.419-2.571-4.467L238.571,97.896z
			 M236.812,107.19h-3.662l1.846-3.166C235.955,104.798,236.622,105.916,236.812,107.19L236.812,107.19z M231.846,112.97
			c-2.775,0-5.029-2.255-5.029-5.031c0-2.771,2.254-5.029,5.029-5.029c0.656,0,1.281,0.132,1.855,0.358l-2.504,4.296
			c-0.135,0.229-0.135,0.518-0.002,0.75s0.381,0.378,0.65,0.378h4.967C236.449,111.108,234.363,112.97,231.846,112.97
			L231.846,112.97z M241.994,108.923c-0.543,0-0.983-0.441-0.983-0.984c0-0.539,0.44-0.979,0.981-0.981l0,0c0.002,0,0.002,0,0.002,0
			c0.541,0.003,0.981,0.442,0.981,0.981C242.976,108.481,242.535,108.923,241.994,108.923L241.994,108.923z M242.547,105.468
			l-2.854-8.996h8.118L242.547,105.468z M254.5,112.97c-2.773,0-5.03-2.255-5.03-5.031c0-1.862,1.021-3.491,2.533-4.358l1.799,4.632
			c0.115,0.297,0.397,0.479,0.698,0.479c0.091,0,0.182-0.018,0.271-0.053c0.386-0.149,0.577-0.585,0.428-0.97l-1.799-4.635
			c0.354-0.078,0.723-0.125,1.1-0.125c2.774,0,5.029,2.258,5.029,5.029C259.529,110.715,257.274,112.97,254.5,112.97L254.5,112.97z
			 M254.5,112.97"/>
	</g>
	<circle fill="none" stroke="#FFFFFF" stroke-miterlimit="10" cx="243.311" cy="102.939" r="30.42"/>
	<path fill="none" stroke="#000000" stroke-miterlimit="10" d="M318.898,170.044c-1.048,0-0.786,1.184-0.786,1.641
		c0,0.456,3.669,4.388,3.669,4.388v-6.028H318.898z"/>
	<path fill="none" stroke="#000000" stroke-miterlimit="10" d="M314.202,187.01c-3.119,0-0.338-5.526-0.338-6.884
		c0-1.358,7.917-6.054,7.917-6.054v10.936L314.202,187.01z"/>
	<path fill="none" stroke="#000000" stroke-miterlimit="10" d="M312.893,183.947c-0.981,5.754,0.726,15.371,1.974,16.894
		c0.861,1.051,6.916,1.049,6.916,1.049v-17.942H312.893z"/>
	<path fill="none" stroke="#000000" stroke-miterlimit="10" d="M324.664,170.044c1.048,0,0.786,1.184,0.786,1.641
		c0,0.456-3.669,4.388-3.669,4.388v-6.028H324.664z"/>
	<path fill="none" stroke="#000000" stroke-miterlimit="10" d="M329.36,187.01c3.119,0,0.338-5.526,0.338-6.884
		c0-1.358-7.917-6.054-7.917-6.054v10.936L329.36,187.01z"/>
	<path fill="none" stroke="#000000" stroke-miterlimit="10" d="M330.67,183.947c0.981,5.754-0.726,15.371-1.974,16.894
		c-0.861,1.051-6.916,1.049-6.916,1.049v-17.942H330.67z"/>
	<path fill="none" stroke="#000000" stroke-miterlimit="10" d="M347.971,131.626c-0.035-1.74-0.86-3.298-1.139-4.107
		c-1.095-3.184-4.539-3.971-6.742-5.337c1.073-1.191,2.494-2.82,2.494-3.104c0-0.457,0.262-1.641-0.786-1.641h-2.883h-2.883
		c-1.048,0-0.786,1.184-0.786,1.641c0,0.284,1.421,1.913,2.494,3.104c-2.202,1.366-6.52,5.333-6.742,6.338
		c-0.306,1.38-1.104,3.368-1.139,5.108c-0.57,5.799,1.103,8.794,2.141,14.605c0.238,1.335,6.893,1.049,6.914,1.049l0,0h0.001h0.001
		l0,0c0.021,0,6.794,0.302,6.914-1.049C346.494,140.745,348.541,137.425,347.971,131.626z"/>
	<path d="M370.017,170.044c-1.048,0-0.786,1.184-0.786,1.641c0,0.456,3.669,4.388,3.669,4.388v-6.028H370.017z"/>
	<path d="M375.782,170.044c1.048,0,0.786,1.184,0.786,1.641c0,0.456-3.669,4.388-3.669,4.388v-6.028H375.782z"/>
	<path fill="none" stroke="#000000" stroke-width="2" stroke-miterlimit="10" d="M332.196,120.742
		c1.003,0.335,3.062,0.836,3.062,0.836h6.471"/>
	<path fill="none" stroke="#000000" stroke-width="2" stroke-miterlimit="10" d="M330.962,124.335
		c2.13-0.071,4.477-2.757,6.001-2.757s1.524,0,1.524,0"/>
	<ellipse cx="372.9" cy="183.947" rx="9.182" ry="9.875"/>
	<circle cx="372.899" cy="194.921" r="7.161"/>
	<path d="M363.736,184.944c0-1.104,0.896-2,2-2h14.326c1.104,0,2,0.896,2,2l-2.002,7.977c0,1.104-0.896,2-2,2h-10.322
		c-1.104,0-2-0.896-2-2L363.736,184.944z"/>
	<path fill="#3A52F0" stroke="#000000" stroke-miterlimit="10" d="M74.941,143.952c0,0-2.243,2.865-2.879,4.779
		s-0.374,5.182-0.374,5.182s2.961-0.417,5.6,0.411"/>
	<path fill="#3A52F0" stroke="#000000" stroke-miterlimit="10" d="M46.224,104.509c-0.127-2.191-3.356-2.741-3.356-3.114
		c0-0.532-0.306-1.913,0.917-1.913l6.601-1.001c1.223,0,0.917,1.381,0.917,1.913c0,0.373-1.097,2.732-2.354,4.113
		c2.629,2.854,0.066,6.336,4.938,7.187s4.744,5.911,4.744,7.199s2.411,2.633,2.411,5.339l0,0c-0.52,4.117-3.58,6.228-5.437,6.228
		H42.337c0,0-3.351-0.522-4.589-2.655c-0.03-0.052-0.058-0.104-0.085-0.154c-2.246-4.119-0.711-5.413,1.076-9.327
		c1.809-3.962,4.605-3.853,4.605-3.853"/>
	<path fill="none" stroke="#000000" stroke-width="2" stroke-miterlimit="10" d="M40.816,103.069
		c1.003,0.335,3.062,0.836,3.062,0.836h6.471"/>
	<path fill="none" stroke="#000000" stroke-width="2" stroke-miterlimit="10" d="M39.582,106.662
		c2.13-0.071,4.477-2.757,6.001-2.757s1.524,0,1.524,0"/>
	<path fill="#3A52F0" stroke="#000000" stroke-miterlimit="10" d="M46.224,104.509c0,0-2.243,4.182-2.879,6.096
		s-0.374,3.865-0.374,3.865s2.961-0.417,5.6,0.411"/>
	<path fill="#3A52F0" stroke="#000000" stroke-miterlimit="10" d="M49.433,40.039c-0.127-2.191-3.356-2.741-3.356-3.114
		c0-0.532-0.306-1.913,0.917-1.913l6.602-1.001c1.223,0,0.917,1.381,0.917,1.913c0,0.373-1.097,2.732-2.354,4.113
		c2.629,2.854,6.542,7.642,6.542,7.642c4.107,5.1,3.156,5.456,3.141,6.744c-0.024,1.99,3.199,0.879,3.412,5.339
		s-3.58,6.228-5.437,6.228h-14.27c0,0-3.351-0.522-4.589-2.655c-0.03-0.052-0.058-0.104-0.085-0.154
		c-2.246-4.119-2.712-5.413-0.925-9.327C41.756,49.891,44.553,50,44.553,50"/>
	<path fill="none" stroke="#000000" stroke-width="2" stroke-miterlimit="10" d="M44.025,38.6c1.003,0.335,3.062,0.836,3.062,0.836
		h6.472"/>
	<path fill="none" stroke="#000000" stroke-width="2" stroke-miterlimit="10" d="M42.791,42.192c2.13-0.071,4.477-2.757,6.001-2.757
		s1.524,0,1.524,0"/>
	<path fill="#3A52F0" stroke="#000000" stroke-miterlimit="10" d="M49.433,40.039c0,0-4.244,2.865-4.88,4.779S44.179,50,44.179,50
		s2.961-0.417,5.6,0.411"/>
	<path fill="none" stroke="#000000" stroke-miterlimit="10" d="M102.234,91.51c-0.789-0.789-6.368-7.21-8.997-10.063
		c1.258-1.381,2.354-3.74,2.354-4.113c0-0.532,0.306-1.913-0.917-1.913l-6.601,1.001c-1.223,0-0.917,1.381-0.917,1.913
		c0,0.373,3.229,0.923,3.356,3.114c-2.63,2.854-6.26,7.727-7.977,10.101c-4.107,5.681-1.431,15.85,4.09,15.85h13.268
		C103.015,107.398,108.008,97.283,102.234,91.51z"/>
	<path fill="none" stroke="#000000" stroke-width="2" stroke-miterlimit="10" d="M85.106,80.009
		c1.003,0.335,3.062,0.836,3.062,0.836h6.471"/>
	<path fill="none" stroke="#000000" stroke-width="2" stroke-miterlimit="10" d="M83.872,83.602c2.13-0.071,4.477-2.757,6.001-2.757
		s1.524,0,1.524,0"/>
	<path fill="none" stroke="#000000" stroke-miterlimit="10" d="M250.93,187.061c-0.826-0.827-4.575-8.604-7.33-11.595
		c1.318-1.446,2.468-4.968,2.468-5.358c0-0.559,0.32-2.005-0.961-2.005l-6.917,1.049c-1.281,0-0.961,1.447-0.961,2.005
		c0,0.391,3.385,2.016,3.518,4.312c-2.756,2.989-4.462,9.146-6.261,11.633c-4.305,5.952-1.5,13.462,4.286,13.462h9.707
		C251.747,200.563,256.979,193.11,250.93,187.061z"/>
	<path fill="none" stroke="#000000" stroke-width="2" stroke-miterlimit="10" d="M235.08,173.96
		c1.051,0.352,3.208,0.876,3.208,0.876h6.78"/>
	<path fill="none" stroke="#000000" stroke-width="2" stroke-miterlimit="10" d="M233.786,177.725
		c2.232-0.074,4.691-2.889,6.289-2.889c1.597,0,1.597,0,1.597,0"/>
	<rect x="89.626" y="201.675" fill="none" stroke="#000000" stroke-miterlimit="10" width="20.748" height="26.156"/>
	<circle fill="none" stroke="#000000" stroke-width="2" stroke-miterlimit="10" cx="99.872" cy="217.448" r="5.489"/>
	<path fill="none" stroke="#000000" stroke-miterlimit="10" d="M89.626,207.247c0,0,4.847,0.956,10.374,0.956
		c7.654,0,10.374-0.956,10.374-0.956"/>
	<rect x="106.153" y="203.618" width="1.616" height="1.616"/>
	<rect x="103.517" y="203.618" width="1.616" height="1.616"/>
</g>
</svg>
