<?xml version="1.0" encoding="utf-8"?>
<!-- Generator: Adobe Illustrator 16.0.4, SVG Export Plug-In . SVG Version: 6.00 Build 0)  -->
<!DOCTYPE svg PUBLIC "-//W3C//DTD SVG 1.1//EN" "http://www.w3.org/Graphics/SVG/1.1/DTD/svg11.dtd">
<svg version="1.1" xmlns="http://www.w3.org/2000/svg" xmlns:xlink="http://www.w3.org/1999/xlink" x="0px" y="0px" width="100px"
	 height="100px" viewBox="0 284 100 100" enable-background="new 0 284 100 100" xml:space="preserve">
<g id="Laag_1" display="none">
	<rect x="-62.186" y="-43.806" display="inline" fill="#3A52F0" width="620.686" height="457.306"/>
</g>
<g id="Laag_2">
	<g>
		<g>
			<path fill="#FFFFFF" d="M66.63,354.835H33.489v-41.387H66.63V354.835z M35.013,353.31h30.091v-38.335H35.013V353.31z"/>
		</g>
		<g>
			<path fill="#FFFFFF" d="M49.864,348.21c-4.912,0-8.912-3.999-8.912-8.911c0-4.914,4-8.915,8.912-8.915
				c4.915,0,8.912,4.001,8.912,8.915C58.775,344.211,54.778,348.21,49.864,348.21z M49.864,333.433
				c-3.232,0-5.864,2.631-5.864,5.866c0,3.23,2.631,5.864,5.864,5.864c3.234,0,5.865-2.634,5.865-5.864
				C55.729,336.063,53.098,333.433,49.864,333.433z"/>
		</g>
		<g>
			<path fill="#FFFFFF" d="M50.059,324.922c-8.399,0-15.881-1.458-15.956-1.47l0.295-1.495c0.073,0.012,7.416,1.441,15.66,1.441
				c11.331,0,15.517-1.4,15.559-1.413l0.504,1.438C65.945,323.483,61.718,324.922,50.059,324.922z"/>
		</g>
		<g>
			<rect x="59.436" y="317.174" fill="#FFFFFF" width="2.463" height="2.462"/>
		</g>
		<g>
			<rect x="55.417" y="317.174" fill="#FFFFFF" width="2.463" height="2.462"/>
		</g>
	</g>
</g>
</svg>
