<?xml version="1.0" encoding="utf-8"?>
<!-- Generator: Adobe Illustrator 16.0.4, SVG Export Plug-In . SVG Version: 6.00 Build 0)  -->
<!DOCTYPE svg PUBLIC "-//W3C//DTD SVG 1.1//EN" "http://www.w3.org/Graphics/SVG/1.1/DTD/svg11.dtd">
<svg version="1.1" xmlns="http://www.w3.org/2000/svg" xmlns:xlink="http://www.w3.org/1999/xlink" x="0px" y="0px" width="100px"
	 height="100px" viewBox="0 140 100 100" enable-background="new 0 140 100 100" xml:space="preserve">
<g id="Laag_1" display="none">
	<rect x="-62.186" y="-43.806" display="inline" fill="#3A52F0" width="620.686" height="457.306"/>
</g>
<g id="Laag_2">
	<g>
		<path fill="#FFFFFF" d="M62.066,220.292h-17.2c-4.561,0-8.414-2.425-10.572-6.651c-2.848-5.569-1.979-12.91,2.21-18.704
			c1.253-1.732,2.536-4.644,3.894-7.728c1.946-4.414,4.141-9.399,6.98-12.649c-0.38-2.266-2.964-4.213-4.539-5.401
			c-1.137-0.854-1.654-1.247-1.654-1.923c0-0.128-0.011-0.284-0.024-0.459c-0.063-0.933-0.161-2.342,0.708-3.272
			c0.476-0.508,1.137-0.766,1.967-0.766l12.112-1.849c1.006-0.033,1.633,0.247,2.108,0.756c0.867,0.931,0.771,2.338,0.709,3.27
			c-0.014,0.178-0.025,0.336-0.025,0.463c0,0.892-1.829,6.485-4.076,9.473c3.049,3.584,6.587,9.875,9.21,14.544
			c1.356,2.413,2.759,4.909,3.205,5.355c7.203,7.203,5.194,14.711,3.995,17.605C69.2,216.88,65.326,220.292,62.066,220.292z
			 M43.069,166.935c0.198,0.177,0.585,0.47,0.909,0.713c1.924,1.45,5.141,3.875,5.332,7.178l0.024,0.399l-0.273,0.295
			c-2.767,3.001-4.979,8.021-6.93,12.454c-1.399,3.177-2.722,6.178-4.091,8.071c-3.777,5.224-4.584,11.793-2.061,16.737
			c1.826,3.57,5.065,5.617,8.889,5.617h17.2c2.19,0,5.504-2.531,7.259-6.769c1.054-2.542,2.812-9.145-3.585-15.543
			c-0.601-0.603-1.618-2.392-3.516-5.765c-2.737-4.869-6.484-11.537-9.5-14.809l-0.588-0.638l0.586-0.642
			c2.08-2.282,4.048-8.105,4.128-8.895c-0.002-0.127,0.011-0.328,0.025-0.555c0.039-0.569,0.105-1.52-0.201-1.85
			c-0.104-0.11-0.299-0.166-0.584-0.166l-12.113,1.849c-0.425,0.011-0.623,0.066-0.726,0.177c-0.307,0.329-0.24,1.28-0.202,1.85
			C43.058,166.747,43.063,166.845,43.069,166.935z"/>
	</g>
	<g>
		<path fill="#FFFFFF" d="M56.023,175.648l-12.461-0.053c-0.159-0.039-3.921-0.955-5.838-1.596l1.201-3.589
			c1.517,0.505,4.485,1.249,5.312,1.453h11.785V175.648z"/>
	</g>
	<g>
		<path fill="#FFFFFF" d="M36.095,180.767l-0.126-3.782c1.587-0.054,3.627-1.389,5.428-2.568c2.007-1.312,3.901-2.552,5.78-2.552
			h2.829v3.784h-2.829c-0.752,0-2.391,1.072-3.707,1.935C41.254,179.035,38.743,180.679,36.095,180.767z"/>
	</g>
</g>
</svg>
