<?xml version="1.0" encoding="utf-8"?>
<!-- Generator: Adobe Illustrator 16.0.4, SVG Export Plug-In . SVG Version: 6.00 Build 0)  -->
<!DOCTYPE svg PUBLIC "-//W3C//DTD SVG 1.1//EN" "http://www.w3.org/Graphics/SVG/1.1/DTD/svg11.dtd">
<svg version="1.1" xmlns="http://www.w3.org/2000/svg" xmlns:xlink="http://www.w3.org/1999/xlink" x="0px" y="0px" width="100px"
	 height="100px" viewBox="0 0 100 100" enable-background="new 0 0 100 100" xml:space="preserve">
<g id="Laag_1" display="none">
	<rect x="-62.186" y="-43.806" display="inline" fill="#3A52F0" width="620.686" height="457.306"/>
</g>
<g id="Laag_2">
	<g>
		<path fill="#FFFFFF" d="M34.428,62.961c-2.478,0-5.628-0.143-8.024-1.258c-2.605-1.215-3.928-3.377-3.928-6.426l0,0
			c-0.006,0-0.196-1.994,1.402-3.783c1.478-1.65,3.922-2.559,7.28-2.709c-0.006-0.233-0.016-0.473-0.023-0.717
			c-0.108-3.029-0.239-6.801,1.992-9.115c1.248-1.291,3.086-1.947,5.46-1.947h7.133c0.513-0.061,4.856-0.705,4.856-4.8v-1.003h1.004
			c2.467,0,4.255,0.741,5.315,2.2c1.12,1.542,1.097,3.493,0.914,4.763h2.886c1.658,0.168,4.597,1.587,4.597,5.791l-0.101,0.902
			h5.972c0.018-0.003,0.179-0.015,0.415-0.015c3.525,0,7.292,2.022,7.292,7.701c0,7.571-2.684,10.256-10.254,10.256
			c-6.632,0-9.259-0.006-9.259-0.006H41.665c-1.068,0-2.212,0.039-3.388,0.08C37.012,62.918,35.709,62.961,34.428,62.961z
			 M32.179,50.77c-3.244,0-5.597,0.713-6.804,2.062c-1.003,1.121-0.901,2.322-0.899,2.334c0.006,2.374,0.886,3.838,2.774,4.719
			c2.04,0.948,4.908,1.07,7.178,1.07c1.26,0,2.537-0.043,3.781-0.086c1.199-0.042,2.367-0.081,3.456-0.081h17.694
			c0.004,0,2.629,0.006,9.257,0.006c6.398,0,8.248-1.851,8.248-8.249c0-5.14-3.697-5.694-5.286-5.694
			c-0.174,0-0.281,0.008-0.301,0.01l-8.333,0.004l0.348-3.023c-0.006-3.244-2.434-3.642-2.71-3.675l-5.388,0.006l0.419-1.311
			c0.009-0.027,0.833-2.67-0.347-4.285c-0.538-0.741-1.465-1.183-2.756-1.32c-0.578,4.073-4.495,5.546-6.64,5.752l-0.09-0.946
			l0.004,0.95h-7.198c-1.835,0-3.148,0.437-4.016,1.336c-1.642,1.698-1.524,4.998-1.432,7.648c0.021,0.623,0.043,1.221,0.043,1.769
			v1.004H32.179z"/>
	</g>
	<g>
		<rect x="48.931" y="44.937" fill="#FFFFFF" width="16.359" height="2.006"/>
	</g>
	<g>
		<rect x="31.842" y="48.763" fill="#FFFFFF" width="6.994" height="2.006"/>
	</g>
</g>
</svg>
