<?xml version="1.0" encoding="utf-8"?>
<!-- Generator: Adobe Illustrator 16.0.4, SVG Export Plug-In . SVG Version: 6.00 Build 0)  -->
<!DOCTYPE svg PUBLIC "-//W3C//DTD SVG 1.1//EN" "http://www.w3.org/Graphics/SVG/1.1/DTD/svg11.dtd">
<svg version="1.1" xmlns="http://www.w3.org/2000/svg" xmlns:xlink="http://www.w3.org/1999/xlink" x="0px" y="0px" width="100px"
	 height="100px" viewBox="0 140 100 100" enable-background="new 0 140 100 100" xml:space="preserve">
<g id="Laag_1" display="none">
	<rect x="-62.186" y="-43.806" display="inline" fill="#3A52F0" width="620.686" height="457.306"/>
</g>
<g id="Laag_2">
	<g>
		<g>
			<path fill="#FFFFFF" d="M58.606,214.975h-13.58c-3.601,0-6.643-1.914-8.348-5.252c-2.248-4.396-1.562-10.192,1.746-14.767
				c0.989-1.368,2.001-3.666,3.074-6.102c1.537-3.484,3.27-7.421,5.511-9.986c-0.3-1.788-2.341-3.326-3.583-4.264
				c-0.897-0.675-1.306-0.985-1.306-1.519c0-0.102-0.008-0.225-0.019-0.362c-0.049-0.736-0.127-1.85,0.559-2.584
				c0.375-0.4,0.897-0.604,1.552-0.604l9.564-1.46c0.794-0.026,1.289,0.195,1.664,0.598c0.686,0.734,0.609,1.846,0.56,2.581
				c-0.01,0.14-0.02,0.265-0.02,0.365c0,0.704-1.443,5.12-3.218,7.479c2.406,2.83,5.2,7.797,7.271,11.482
				c1.07,1.905,2.178,3.876,2.53,4.229c5.688,5.687,4.101,11.614,3.153,13.899C64.239,212.281,61.18,214.975,58.606,214.975z
				 M43.607,172.849c0.156,0.139,0.462,0.371,0.717,0.562c1.519,1.146,4.06,3.06,4.209,5.667l0.019,0.315l-0.216,0.232
				c-2.184,2.37-3.93,6.334-5.471,9.833c-1.104,2.509-2.149,4.877-3.23,6.372c-2.982,4.124-3.62,9.311-1.627,13.214
				c1.441,2.819,4,4.436,7.018,4.436h13.58c1.73,0,4.346-1.998,5.731-5.344c0.832-2.007,2.219-7.22-2.831-12.271
				c-0.474-0.477-1.276-1.889-2.775-4.552c-2.161-3.844-5.12-9.108-7.501-11.691l-0.464-0.504l0.463-0.507
				c1.642-1.801,3.197-6.398,3.26-7.021c-0.001-0.101,0.008-0.259,0.02-0.438c0.031-0.45,0.084-1.2-0.159-1.461
				c-0.081-0.087-0.235-0.131-0.46-0.131l-9.565,1.459c-0.335,0.01-0.492,0.054-0.573,0.14c-0.242,0.261-0.189,1.012-0.159,1.461
				C43.599,172.7,43.603,172.777,43.607,172.849z"/>
		</g>
		<g>
			<path fill="#FFFFFF" d="M53.835,179.729l-9.838-0.042c-0.126-0.031-3.097-0.754-4.609-1.261l0.948-2.832
				c1.198,0.397,3.541,0.985,4.195,1.146h9.304V179.729z"/>
		</g>
		<g>
			<path fill="#FFFFFF" d="M38.101,183.769l-0.1-2.986c1.253-0.042,2.864-1.096,4.285-2.027c1.584-1.035,3.08-2.015,4.563-2.015
				h2.234v2.988H46.85c-0.594,0-1.888,0.846-2.926,1.526C42.174,182.402,40.191,183.699,38.101,183.769z"/>
		</g>
	</g>
</g>
</svg>
